<?xml version="1.0" standalone="no"?>
<!DOCTYPE svg PUBLIC "-//W3C//DTD SVG 20010904//EN"
 "http://www.w3.org/TR/2001/REC-SVG-20010904/DTD/svg10.dtd">
<svg version="1.0" xmlns="http://www.w3.org/2000/svg"
 width="511.000000pt" height="511.363300pt" viewBox="0 0 511.000000 511.363300"
 preserveAspectRatio="xMidYMid meet">
<metadata>
Created by potrace 1.16, written by Peter Selinger 2001-2019
</metadata>
<g transform="translate(-0.500000,511.863300) scale(0.100000,-0.100000)"
fill="#22C55E" stroke="none">
<path d="M1355 5113 c-201 -24 -375 -76 -544 -163 -411 -213 -701 -605 -787
-1065 -18 -94 -19 -171 -19 -1325 0 -1154 1 -1231 19 -1325 115 -617 594
-1096 1211 -1211 94 -18 171 -19 1335 -19 l1235 0 105 23 c463 102 829 377
1039 782 68 130 109 247 143 400 l23 105 0 1235 c0 1164 -1 1241 -19 1335
-107 576 -532 1036 -1093 1185 -182 49 -210 50 -1453 48 -641 0 -1178 -3
-1195 -5z m211 -1164 c84 -26 144 -81 189 -172 49 -100 65 -173 72 -313 10
-210 -16 -382 -146 -960 -75 -337 -97 -474 -88 -562 6 -74 23 -108 59 -123 25
-10 35 -9 66 5 104 50 212 163 347 366 101 153 160 260 219 406 l45 111 -10
157 c-17 253 6 502 62 676 60 184 170 313 292 340 45 11 62 10 112 -5 49 -14
70 -28 125 -83 104 -106 146 -215 157 -403 13 -229 -59 -497 -197 -741 l-50
-88 0 -112 c1 -191 28 -334 91 -464 101 -213 241 -227 416 -42 136 144 253
415 298 688 39 234 12 621 -65 933 -32 132 -30 156 19 224 41 57 106 107 187
145 58 27 81 32 144 33 133 0 223 -64 291 -209 56 -120 79 -244 86 -467 15
-480 -77 -921 -278 -1321 -216 -430 -535 -737 -836 -804 -100 -22 -245 -15
-325 15 -103 40 -201 130 -277 256 -67 110 -140 344 -171 544 l-13 83 -76
-154 c-195 -396 -431 -644 -696 -734 -105 -35 -231 -37 -317 -4 -123 46 -234
159 -291 295 -41 98 -57 199 -57 357 0 202 24 354 130 837 89 408 112 581 90
685 -18 89 -59 118 -139 96 -56 -15 -123 -81 -146 -145 -10 -27 -19 -51 -20
-53 -1 -1 -10 0 -19 4 -21 8 -21 80 -1 200 31 176 97 309 198 400 80 72 158
106 297 128 45 7 164 -6 226 -25z"/>
</g>
</svg>
