<?xml version="1.0" encoding="UTF-8"?>
<svg xmlns="http://www.w3.org/2000/svg" viewBox="0 0 512 512" role="img" aria-label="Whoga">
  <title>Whoga</title>
  <path fill="#FFFFFF" d="M492.00,256.00 L491.63,341.38 L490.50,369.79 L488.62,390.38 L485.96,406.93 L482.52,420.84 L478.27,432.80 L473.18,443.21 L467.20,452.31 L460.27,460.27 L452.31,467.20 L443.21,473.18 L432.80,478.27 L420.84,482.52 L406.93,485.96 L390.38,488.62 L369.79,490.50 L341.38,491.63 L256.00,492.00 L170.62,491.63 L142.21,490.50 L121.62,488.62 L105.07,485.96 L91.16,482.52 L79.20,478.27 L68.79,473.18 L59.69,467.20 L51.73,460.27 L44.80,452.31 L38.82,443.21 L33.73,432.80 L29.48,420.84 L26.04,406.93 L23.38,390.38 L21.50,369.79 L20.37,341.38 L20.00,256.00 L20.37,170.62 L21.50,142.21 L23.38,121.62 L26.04,105.07 L29.48,91.16 L33.73,79.20 L38.82,68.79 L44.80,59.69 L51.73,51.73 L59.69,44.80 L68.79,38.82 L79.20,33.73 L91.16,29.48 L105.07,26.04 L121.62,23.38 L142.21,21.50 L170.62,20.37 L256.00,20.00 L341.38,20.37 L369.79,21.50 L390.38,23.38 L406.93,26.04 L420.84,29.48 L432.80,33.73 L443.21,38.82 L452.31,44.80 L460.27,51.73 L467.20,59.69 L473.18,68.79 L478.27,79.20 L482.52,91.16 L485.96,105.07 L488.62,121.62 L490.50,142.21 L491.63,170.62 L492.00,256.00 Z"/>
  <g transform="translate(-0.500000,511.863300) scale(0.100000,-0.100000)">
    <path fill="#22C55E" d="M1566 3949 c84 -26 144 -81 189 -172 49 -100 65 -173 72 -313 10 -210 -16 -382 -146 -960 -75 -337 -97 -474 -88 -562 6 -74 23 -108 59 -123 25 -10 35 -9 66 5 104 50 212 163 347 366 101 153 160 260 219 406 l45 111 -10 157 c-17 253 6 502 62 676 60 184 170 313 292 340 45 11 62 10 112 -5 49 -14 70 -28 125 -83 104 -106 146 -215 157 -403 13 -229 -59 -497 -197 -741 l-50 -88 0 -112 c1 -191 28 -334 91 -464 101 -213 241 -227 416 -42 136 144 253 415 298 688 39 234 12 621 -65 933 -32 132 -30 156 19 224 41 57 106 107 187 145 58 27 81 32 144 33 133 0 223 -64 291 -209 56 -120 79 -244 86 -467 15 -480 -77 -921 -278 -1321 -216 -430 -535 -737 -836 -804 -100 -22 -245 -15 -325 15 -103 40 -201 130 -277 256 -67 110 -140 344 -171 544 l-13 83 -76 -154 c-195 -396 -431 -644 -696 -734 -105 -35 -231 -37 -317 -4 -123 46 -234 159 -291 295 -41 98 -57 199 -57 357 0 202 24 354 130 837 89 408 112 581 90 685 -18 89 -59 118 -139 96 -56 -15 -123 -81 -146 -145 -10 -27 -19 -51 -20 -53 -1 -1 -10 0 -19 4 -21 8 -21 80 -1 200 31 176 97 309 198 400 80 72 158 106 297 128 45 7 164 -6 226 -25z"/>
  </g>
</svg>
