<?xml version="1.0" encoding="UTF-8"?>
<svg xmlns="http://www.w3.org/2000/svg" viewBox="0 0 512 512" role="img" aria-label="Whoga">
  <title>Whoga</title>
  <path fill="#000000" d="M492.00,256.00 L491.63,341.38 L490.50,369.79 L488.62,390.38 L485.96,406.93 L482.52,420.84 L478.27,432.80 L473.18,443.21 L467.20,452.31 L460.27,460.27 L452.31,467.20 L443.21,473.18 L432.80,478.27 L420.84,482.52 L406.93,485.96 L390.38,488.62 L369.79,490.50 L341.38,491.63 L256.00,492.00 L170.62,491.63 L142.21,490.50 L121.62,488.62 L105.07,485.96 L91.16,482.52 L79.20,478.27 L68.79,473.18 L59.69,467.20 L51.73,460.27 L44.80,452.31 L38.82,443.21 L33.73,432.80 L29.48,420.84 L26.04,406.93 L23.38,390.38 L21.50,369.79 L20.37,341.38 L20.00,256.00 L20.37,170.62 L21.50,142.21 L23.38,121.62 L26.04,105.07 L29.48,91.16 L33.73,79.20 L38.82,68.79 L44.80,59.69 L51.73,51.73 L59.69,44.80 L68.79,38.82 L79.20,33.73 L91.16,29.48 L105.07,26.04 L121.62,23.38 L142.21,21.50 L170.62,20.37 L256.00,20.00 L341.38,20.37 L369.79,21.50 L390.38,23.38 L406.93,26.04 L420.84,29.48 L432.80,33.73 L443.21,38.82 L452.31,44.80 L460.27,51.73 L467.20,59.69 L473.18,68.79 L478.27,79.20 L482.52,91.16 L485.96,105.07 L488.62,121.62 L490.50,142.21 L491.63,170.62 L492.00,256.00 Z"/>
  <path
    fill="none"
    stroke="#000000"
    stroke-width="52"
    stroke-linecap="square"
    stroke-linejoin="miter"
    d="M 116 360 L 176 152 L 236 272 L 256 184 L 276 272 L 336 152 L 396 360"
  />
</svg>
